<?xml version="1.0" encoding="utf-8"?>
<!-- Generator: Adobe Illustrator 25.1.0, SVG Export Plug-In . SVG Version: 6.00 Build 0)  -->
<svg version="1.1" id="Capa_1" xmlns="http://www.w3.org/2000/svg" xmlns:xlink="http://www.w3.org/1999/xlink" x="0px" y="0px"
	 viewBox="0 0 512 512" style="enable-background:new 0 0 512 512;" xml:space="preserve">
<style type="text/css">
	.st0{fill:#149E0E;}
</style>
<g>
	<g>
		<path class="st0" d="M435.2,193.7c-7.9-17.3-24.8-28-44-28h-68.2l80.8-135.5c3.7-6.2,3.8-13.8,0.2-20.1C400.5,3.9,393.9,0,386.7,0
			H197.1c-7.5,0-14.4,4.2-17.8,10.9L80,206.8c-11.1,21.8-10.1,47.3,2.7,68.2c12.8,20.9,35.1,33.4,59.6,33.4h69.9l-69.5,142.5
			c-9.3,18.9-3.9,40.6,13.2,52.9c7.6,5.5,16.2,8.2,24.8,8.2c10.7,0,21.2-4.2,29.5-12.4c0.4-0.4,0.7-0.7,1-1.1l154.7-178
			c7.2-8.3,6.3-20.9-2-28.2c-8.3-7.2-20.9-6.3-28.2,2L181.7,471.6c-0.6,0.5-1.3,0.7-2.5-0.2c-1.6-1.1-1.2-1.9-0.7-3L262,297.2
			c3-6.2,2.6-13.5-1-19.3c-3.6-5.8-10-9.4-16.9-9.4H142.2c-10.7,0-20-5.2-25.5-14.3c-5.6-9.1-6-19.7-1.1-29.3l93.8-185h142.2
			l-80.8,135.5c-3.7,6.2-3.8,13.8-0.2,20.1s10.2,10.1,17.4,10.1h103.4c4.8,0,6.9,3,7.7,4.8c0.8,1.8,1.8,5.4-1.4,9.2
			c-7.2,8.4-6.2,21,2.1,28.1c8.4,7.2,21,6.2,28.1-2.1C440.4,230.9,443.2,211.1,435.2,193.7z"/>
	</g>
</g>
</svg>
