<?xml version="1.0" encoding="utf-8"?>
<!-- Generator: Adobe Illustrator 25.1.0, SVG Export Plug-In . SVG Version: 6.00 Build 0)  -->
<svg version="1.1" id="Layer_1" xmlns="http://www.w3.org/2000/svg" xmlns:xlink="http://www.w3.org/1999/xlink" x="0px" y="0px"
	 viewBox="0 0 512 512" style="enable-background:new 0 0 512 512;" xml:space="preserve">
<style type="text/css">
	.st0{fill:#149E0E;}
</style>
<path class="st0" d="M311,512H120c-44.1,0-80-35.9-80-80V161c0-44.1,35.9-80,80-80h191c44.1,0,80,35.9,80,80v271
	C391,476.1,355.1,512,311,512z M120,121c-22.1,0-40,17.9-40,40v271c0,22.1,17.9,40,40,40h191c22.1,0,40-17.9,40-40V161
	c0-22.1-17.9-40-40-40H120z M471,382V80c0-44.1-35.9-80-80-80H169c-11,0-20,9-20,20s9,20,20,20h222c22.1,0,40,17.9,40,40v302
	c0,11,9,20,20,20S471,393,471,382z"/>
</svg>
