<?xml version="1.0" encoding="utf-8"?>
<!-- Generator: Adobe Illustrator 25.1.0, SVG Export Plug-In . SVG Version: 6.00 Build 0)  -->
<svg version="1.1" id="Capa_1" xmlns="http://www.w3.org/2000/svg" xmlns:xlink="http://www.w3.org/1999/xlink" x="0px" y="0px"
	 viewBox="0 0 35.3 35.3" style="enable-background:new 0 0 35.3 35.3;" xml:space="preserve">
<style type="text/css">
	.st0{fill:#149E0E;}
</style>
<g>
	<path class="st0" d="M17.7,0v4c7.5,0,13.7,6.1,13.7,13.7s-6.1,13.7-13.7,13.7c-6.9,0-12.5-5.1-13.5-11.7h5.2
		c0.9,3.7,4.3,6.5,8.3,6.5h2v-3.1h5.7v-4h-5.7v-2.9h5.7v-4h-5.7V9.1h-2c-4,0-7.4,2.8-8.3,6.5H0v2c0,9.7,7.9,17.7,17.7,17.7
		c9.7,0,17.7-7.9,17.7-17.7C35.3,7.9,27.4,0,17.7,0z"/>
</g>
</svg>
